# xmcd CD database file
# Copyright (C) 1996 Ti Kan
#
# Track frame offsets:
#  182
#  13570
#  23365
#  36630
#  46762
#  59557
#  69797
#  85610
#  97965
#  110825
#  122192
#  134645
#  148560
#  158232
#  170265
#  181132
#
# Disc length: 2566 seconds
#
# Revision: 1
# Processed by: cddbd v1.4b41PL1 Copyright (c) Steve Scherf et al.
# Submitted via: CDWizzard Release:4.12
#
DISCID=d00a0410
DTITLE=Magic Sam - West Side Soul
DYEAR=1900
DGENRE=
TTITLE0=All Your Love
TTITLE1=Love Me With A Feeling
TTITLE2=Everything Gonna Be Alright
TTITLE3=Look Watcha Done
TTITLE4=All Night Long
TTITLE5=All My Whole Life
TTITLE6=Easy Baby
TTITLE7=21 Days In Jail
TTITLE8=Love Me This Way
TTITLE9=Magic Rocker
TTITLE10=Roll Your Moneymaker
TTITLE11=Call Me If You Need Me
TTITLE12=Every Night About This Time
TTITLE13=Blue Light Boogie
TTITLE14=Out Of Bad Luck
TTITLE15=She Belongs To Me
EXTD=
EXTT0=
EXTT1=
EXTT2=
EXTT3=
EXTT4=
EXTT5=
EXTT6=
EXTT7=
EXTT8=
EXTT9=
EXTT10=
EXTT11=
EXTT12=
EXTT13=
EXTT14=
EXTT15=
PLAYORDER=
